<?xml version="1.0" encoding="UTF-8" standalone="no"?>
<!-- Created with Inkscape (http://www.inkscape.org/) -->

<svg
   xmlns:dc="http://purl.org/dc/elements/1.1/"
   xmlns:cc="http://creativecommons.org/ns#"
   xmlns:rdf="http://www.w3.org/1999/02/22-rdf-syntax-ns#"
   xmlns:svg="http://www.w3.org/2000/svg"
   xmlns="http://www.w3.org/2000/svg"
   xmlns:sodipodi="http://sodipodi.sourceforge.net/DTD/sodipodi-0.dtd"
   xmlns:inkscape="http://www.inkscape.org/namespaces/inkscape"
   width="18.011152mm"
   height="13.3573mm"
   viewBox="0 0 18.011152 13.3573"
   version="1.1"
   id="svg7541"
   inkscape:version="0.92.4 (5da689c313, 2019-01-14)"
   sodipodi:docname="coffee.svg">
  <defs
     id="defs7535" />
  <sodipodi:namedview
     id="base"
     pagecolor="#ffffff"
     bordercolor="#666666"
     borderopacity="1.0"
     inkscape:pageopacity="0.0"
     inkscape:pageshadow="2"
     inkscape:zoom="9.8116246"
     inkscape:cx="46.398141"
     inkscape:cy="20.369831"
     inkscape:document-units="mm"
     inkscape:current-layer="layer1"
     showgrid="false"
     inkscape:window-width="1920"
     inkscape:window-height="1017"
     inkscape:window-x="-8"
     inkscape:window-y="-8"
     inkscape:window-maximized="1" />
  <metadata
     id="metadata7538">
    <rdf:RDF>
      <cc:Work
         rdf:about="">
        <dc:format>image/svg+xml</dc:format>
        <dc:type
           rdf:resource="http://purl.org/dc/dcmitype/StillImage" />
        <dc:title></dc:title>
      </cc:Work>
    </rdf:RDF>
  </metadata>
  <g
     inkscape:groupmode="layer"
     id="layer16"
     inkscape:label="Ebene 2"
     transform="translate(98.903871,-140.47379)" />
  <g
     inkscape:label="Ebene 1"
     inkscape:groupmode="layer"
     id="layer1"
     transform="translate(98.903871,-140.47379)">
    <path
       style="display:inline;opacity:1;fill:#ffffff;fill-opacity:1;stroke:none;stroke-width:0.61621934;stroke-linecap:round;stroke-miterlimit:4;stroke-dasharray:none;stroke-opacity:1"
       d="m -92.537055,140.47379 a 6.3668716,6.6670593 0 0 0 -6.366816,6.66701 6.3668716,6.6670593 0 0 0 6.034062,6.64959 v 0.0155 h 0.295983 a 6.3668716,6.6670593 0 0 0 0.03683,0.002 6.3668716,6.6670593 0 0 0 0.05196,-0.002 h 4.748551 a 6.3668716,6.6670593 0 0 0 0.476949,0.0252 6.3668716,6.6670593 0 0 0 0.516659,-0.0252 h 0.167546 v -0.0212 a 6.3668716,6.6670593 0 0 0 5.682613,-6.62121 6.3668716,6.6670593 0 0 0 -5.682613,-6.62574 v -0.0297 h -0.464116 a 6.3668716,6.6670593 0 0 0 -0.220089,-0.0112 6.3668716,6.6670593 0 0 0 -0.311741,0.0112 h -4.321805 a 6.3668716,6.6670593 0 0 0 -0.64392,-0.0342 z"
       id="rect900-30"
       inkscape:connector-curvature="0" />
    <path
       style="display:inline;opacity:1;fill:#691f1a;fill-opacity:1;stroke:none;stroke-width:0.49977684;stroke-linecap:round;stroke-miterlimit:4;stroke-dasharray:none;stroke-opacity:1"
       d="m -92.048383,142.68112 a 5.3377018,5.2310374 0 0 0 -5.33766,5.23099 5.3377018,5.2310374 0 0 0 5.05869,5.21734 v 0.0121 h 0.24814 a 5.3377018,5.2310374 0 0 0 0.0309,0.002 5.3377018,5.2310374 0 0 0 0.0436,-0.002 h 3.98097 a 5.3377018,5.2310374 0 0 0 0.39986,0.0198 5.3377018,5.2310374 0 0 0 0.43314,-0.0198 h 0.14046 v -0.0166 a 5.3377018,5.2310374 0 0 0 4.76405,-5.19507 5.3377018,5.2310374 0 0 0 -4.76405,-5.19862 v -0.0233 h -0.38909 a 5.3377018,5.2310374 0 0 0 -0.18451,-0.009 5.3377018,5.2310374 0 0 0 -0.26135,0.009 h -3.62321 a 5.3377018,5.2310374 0 0 0 -0.53984,-0.0268 z"
       id="rect900-3"
       inkscape:connector-curvature="0" />
    <path
       style="display:inline;opacity:1;fill:#872f2a;fill-opacity:1;stroke:none;stroke-width:0.5189566;stroke-linecap:round;stroke-miterlimit:4;stroke-dasharray:none;stroke-opacity:1"
       d="m -92.294133,141.48151 a 5.6358785,5.3418327 0 0 0 -5.63583,5.34179 5.6358785,5.3418327 0 0 0 5.34128,5.32784 v 0.0124 h 0.262 a 5.6358785,5.3418327 0 0 0 0.0326,0.002 5.6358785,5.3418327 0 0 0 0.046,-0.002 h 4.20336 a 5.6358785,5.3418327 0 0 0 0.42219,0.0202 5.6358785,5.3418327 0 0 0 0.45734,-0.0202 h 0.14831 v -0.017 a 5.6358785,5.3418327 0 0 0 5.03018,-5.3051 5.6358785,5.3418327 0 0 0 -5.03018,-5.30872 v -0.0238 h -0.41083 a 5.6358785,5.3418327 0 0 0 -0.19482,-0.009 5.6358785,5.3418327 0 0 0 -0.27595,0.009 h -3.82561 a 5.6358785,5.3418327 0 0 0 -0.56999,-0.0274 z"
       id="rect900"
       inkscape:connector-curvature="0" />
    <path
       style="display:inline;opacity:1;fill:none;stroke:#541109;stroke-width:2;stroke-linecap:round;stroke-linejoin:miter;stroke-miterlimit:4;stroke-dasharray:none;stroke-opacity:1"
       d="m -95.385703,146.70344 10.32188,-0.0222"
       id="path939"
       inkscape:connector-curvature="0" />
    <path
       style="display:inline;opacity:1;fill:none;stroke:#541109;stroke-width:0.99183863;stroke-linecap:round;stroke-linejoin:miter;stroke-miterlimit:4;stroke-dasharray:none;stroke-opacity:1"
       d="m -92.705043,150.04962 -0.0339,-6.64797"
       id="path939-2"
       inkscape:connector-curvature="0" />
    <path
       style="display:inline;opacity:1;fill:none;stroke:#541109;stroke-width:0.99183863;stroke-linecap:round;stroke-linejoin:miter;stroke-miterlimit:4;stroke-dasharray:none;stroke-opacity:1"
       d="m -90.063533,150.04962 -0.0339,-6.64797"
       id="path939-2-3"
       inkscape:connector-curvature="0" />
    <path
       style="display:inline;opacity:1;fill:none;stroke:#541109;stroke-width:0.99183863;stroke-linecap:round;stroke-linejoin:miter;stroke-miterlimit:4;stroke-dasharray:none;stroke-opacity:1"
       d="m -87.555213,150.02743 -0.0339,-6.64797"
       id="path939-2-3-4"
       inkscape:connector-curvature="0" />
  </g>
</svg>
