<?xml version="1.0" encoding="UTF-8" standalone="no"?>
<!-- Created with Inkscape (http://www.inkscape.org/) -->

<svg
   xmlns:dc="http://purl.org/dc/elements/1.1/"
   xmlns:cc="http://creativecommons.org/ns#"
   xmlns:rdf="http://www.w3.org/1999/02/22-rdf-syntax-ns#"
   xmlns:svg="http://www.w3.org/2000/svg"
   xmlns="http://www.w3.org/2000/svg"
   xmlns:sodipodi="http://sodipodi.sourceforge.net/DTD/sodipodi-0.dtd"
   xmlns:inkscape="http://www.inkscape.org/namespaces/inkscape"
   width="25.582556mm"
   height="27.585258mm"
   viewBox="0 0 25.582556 27.585258"
   version="1.1"
   id="svg5080"
   sodipodi:docname="cup_small_dirty.svg"
   inkscape:version="0.92.4 5da689c313, 2019-01-14">
  <defs
     id="defs5074" />
  <sodipodi:namedview
     id="base"
     pagecolor="#ffffff"
     bordercolor="#666666"
     borderopacity="1.0"
     inkscape:pageopacity="0.0"
     inkscape:pageshadow="2"
     inkscape:zoom="4.3218853"
     inkscape:cx="66.636556"
     inkscape:cy="72.787098"
     inkscape:document-units="mm"
     inkscape:current-layer="layer1"
     showgrid="false"
     inkscape:snap-global="false"
     showguides="true"
     inkscape:guide-bbox="true"
     inkscape:window-width="1920"
     inkscape:window-height="1015"
     inkscape:window-x="0"
     inkscape:window-y="0"
     inkscape:window-maximized="1" />
  <metadata
     id="metadata5077">
    <rdf:RDF>
      <cc:Work
         rdf:about="">
        <dc:format>image/svg+xml</dc:format>
        <dc:type
           rdf:resource="http://purl.org/dc/dcmitype/StillImage" />
        <dc:title></dc:title>
      </cc:Work>
    </rdf:RDF>
  </metadata>
  <g
     inkscape:groupmode="layer"
     id="layer15"
     inkscape:label="Ebene 2"
     transform="translate(-69.641421,-125.48524)"
     style="display:inline" />
  <g
     inkscape:label="Ebene 1"
     inkscape:groupmode="layer"
     id="layer1"
     transform="translate(-69.641421,-125.48524)"
     style="display:inline">
    <path
       style="fill:#fedfdf;fill-opacity:1;stroke:#205f60;stroke-width:0.87982982;stroke-linecap:butt;stroke-linejoin:miter;stroke-miterlimit:4;stroke-dasharray:none;stroke-opacity:1"
       d="m 70.081336,130.37311 v -3.91898 c 0.05706,-0.45923 0.579957,-0.52874 0.579957,-0.52874 l 23.35424,0.19208 c 0,0 0.768528,-0.0669 0.768528,0.58914 v 3.60321 l -2.086009,0.0185 -2.634958,22.21593 -15.480374,0.0842 -2.659167,-22.24876 z"
       id="path6311"
       inkscape:connector-curvature="0"
       sodipodi:nodetypes="ccccccccccc" />
    <path
       style="fill:#efebf5;fill-opacity:1;stroke:none;stroke-width:0.26202229px;stroke-linecap:butt;stroke-linejoin:miter;stroke-opacity:1"
       d="m 70.315514,127.30226 c -0.08608,-0.87436 0.400147,-0.99686 0.400147,-0.99686 l 23.347272,0.0846 c 0,0 0.543061,0.16013 0.42105,1.01965 z"
       id="path6333"
       inkscape:connector-curvature="0"
       sodipodi:nodetypes="ccccc" />
    <rect
       style="fill:#fedfdf;fill-opacity:1;stroke:none;stroke-width:1.6792742;stroke-linecap:butt;stroke-miterlimit:4;stroke-dasharray:none;stroke-opacity:1"
       id="rect6339"
       width="0.43406317"
       height="2.648746"
       x="70.31823"
       y="127.28841"
       rx="2.7755586e-17" />
    <rect
       style="fill:#fedfdf;fill-opacity:1;stroke:none;stroke-width:1.60913575;stroke-linecap:butt;stroke-miterlimit:4;stroke-dasharray:none;stroke-opacity:1"
       id="rect6339-2"
       width="0.42694739"
       height="2.4726405"
       x="94.060059"
       y="127.3916"
       rx="2.7300577e-17" />
    <path
       style="display:inline;fill:#8b544d;fill-opacity:1;stroke:none;stroke-width:0.17964432px;stroke-linecap:butt;stroke-linejoin:miter;stroke-opacity:1"
       d="m 70.587345,126.14004 -0.41343,0.85165 0.03013,3.13849 1.811622,0.15163 0.587329,3.86017 c 0.19403,0.8572 0.41961,1.94348 0.63872,3.29444 0.55122,3.39861 1.50325,-0.41722 1.45314,-1.90785 0.20044,-1.55023 -0.25033,-6.32029 0.75189,-2.80241 1.00222,3.51785 2.10427,0.5365 2.10427,0.5365 l 0.401,-1.3117 c 0,0 0.05,1.25235 1.35289,7.81104 1.30289,6.55873 6.664706,4.29267 6.614596,1.01332 0.15032,-1.49062 -0.11521,-2.06313 -0.0765,-3.45357 0.0467,-1.67513 0.66141,-0.61978 0.79323,0.006 0.065,0.30869 0.11925,0.66434 0.18552,1.06421 1.4031,8.4667 4.05866,0.47682 4.05866,0.47682 l 0.66611,-0.79217 0.985898,-7.88782 2.06756,0.25886 0.100489,-2.75888 c 0,-0.93504 -0.37554,-1.30445 -0.37554,-1.30445 z"
       id="path48"
       inkscape:connector-curvature="0"
       sodipodi:nodetypes="cccccsccccsccccccccccc" />
    <rect
       style="display:inline;fill:#6c433b;fill-opacity:1;stroke:none;stroke-width:0.38629466;stroke-miterlimit:4;stroke-dasharray:none;stroke-opacity:1"
       id="rect966"
       width="20.179873"
       height="0.90081429"
       x="72.162682"
       y="130.36682" />
    <path
       style="fill:none;fill-opacity:1;stroke:#205f60;stroke-width:0.87982982;stroke-linecap:butt;stroke-linejoin:miter;stroke-miterlimit:4;stroke-dasharray:none;stroke-opacity:1"
       d="m 70.084919,130.39137 v -3.91898 c 0.05706,-0.45923 0.579957,-0.52874 0.579957,-0.52874 l 23.354235,0.19208 c 0,0 0.76853,-0.0669 0.76853,0.58914 v 3.60321 l -2.08601,0.0185 -2.63495,22.21593 -15.480378,0.0842 -2.659167,-22.24877 z"
       id="path6311-5"
       inkscape:connector-curvature="0"
       sodipodi:nodetypes="ccccccccccc" />
  </g>
</svg>
