<?xml version="1.0" encoding="UTF-8" standalone="no"?>
<!-- Created with Inkscape (http://www.inkscape.org/) -->

<svg
   xmlns:dc="http://purl.org/dc/elements/1.1/"
   xmlns:cc="http://creativecommons.org/ns#"
   xmlns:rdf="http://www.w3.org/1999/02/22-rdf-syntax-ns#"
   xmlns:svg="http://www.w3.org/2000/svg"
   xmlns="http://www.w3.org/2000/svg"
   xmlns:sodipodi="http://sodipodi.sourceforge.net/DTD/sodipodi-0.dtd"
   xmlns:inkscape="http://www.inkscape.org/namespaces/inkscape"
   width="53.785851mm"
   height="59.312473mm"
   viewBox="0 0 53.785852 59.312475"
   version="1.1"
   id="svg10376"
   inkscape:version="0.92.4 (5da689c313, 2019-01-14)"
   sodipodi:docname="cup_ready.svg">
  <defs
     id="defs10370" />
  <sodipodi:namedview
     id="base"
     pagecolor="#ffffff"
     bordercolor="#666666"
     borderopacity="1.0"
     inkscape:pageopacity="0.0"
     inkscape:pageshadow="2"
     inkscape:zoom="0.7166604"
     inkscape:cx="180.89826"
     inkscape:cy="15.359547"
     inkscape:document-units="mm"
     inkscape:current-layer="layer23"
     showgrid="false"
     inkscape:snap-global="false"
     inkscape:window-width="1920"
     inkscape:window-height="1017"
     inkscape:window-x="-8"
     inkscape:window-y="-8"
     inkscape:window-maximized="1" />
  <metadata
     id="metadata10373">
    <rdf:RDF>
      <cc:Work
         rdf:about="">
        <dc:format>image/svg+xml</dc:format>
        <dc:type
           rdf:resource="http://purl.org/dc/dcmitype/StillImage" />
        <dc:title />
      </cc:Work>
    </rdf:RDF>
  </metadata>
  <g
     inkscape:groupmode="layer"
     id="layer23"
     inkscape:label="Ebene 2"
     style="display:inline"
     transform="translate(-59.11867,-80.937365)">
    <path
       style="display:inline;fill:#ffffff;fill-opacity:1;stroke:none;stroke-width:0.31477639px;stroke-linecap:butt;stroke-linejoin:miter;stroke-opacity:1"
       d="m 86.011885,80.937365 c -14.85295,-2.2e-5 -26.893567,6.535615 -26.893215,14.597613 0.0055,0.413635 0.04335,0.826957 0.113512,1.238846 0.08858,0.68918 0.258721,1.380576 0.596555,2.066417 0.05344,0.108491 0.09208,0.186234 0.13887,0.281696 0.08845,0.191755 0.184077,0.382515 0.286807,0.572162 0.252315,0.492411 0.483264,0.884181 0.961246,1.534321 l 0.306731,0.29484 c 0.673269,0.81234 1.482111,1.58952 2.416406,2.32182 l 0.02173,0.0207 c 0.0091,0.005 0.0158,0.009 0.02476,0.0144 0.581691,0.45171 1.210045,0.88518 1.882043,1.29832 l 0.274728,3.07113 0.149137,1.80976 c 0.0046,0.002 0.0095,0.005 0.01389,0.008 l 1.152654,12.87801 c 0,0 1.905656,7.23824 2.787406,10.89487 2.072827,3.93835 4.29167,6.59977 12.928546,6.39893 l 10.283905,-0.318 c 0,0 6.598094,-0.52245 8.854114,-5.69594 1.97801,-3.61705 2.58279,-8.86039 2.58279,-8.86039 l 1.43221,-15.38198 c 0.003,-10e-4 0.009,-0.005 0.0127,-0.006 l 0.0362,-0.51331 0.4287,-4.60295 c 0.0603,-0.0464 0.39814,-0.31637 0.87127,-0.70362 0.85412,-0.63171 1.61313,-1.29972 2.2697,-1.99756 0.40792,-0.39068 0.80782,-0.79209 1.15989,-1.18751 0.15804,-0.3213 0.97458,-1.34909 1.37847,-2.642964 0.38263,-1.225743 0.44911,-1.744329 0.34478,-1.96375 0.0399,-0.276242 0.0653,-0.553044 0.0761,-0.83007 3.5e-4,-8.061872 -12.0399,-14.597456 -26.892615,-14.597614 z"
       id="path10935-5"
       inkscape:connector-curvature="0"
       sodipodi:nodetypes="ccccccccccccccccccccccccccccccccc" />
    <path
       style="fill:#e6c9c8;fill-opacity:1;stroke:none;stroke-width:0.26458332px;stroke-linecap:butt;stroke-linejoin:miter;stroke-opacity:1"
       d="m 68.672545,102.60386 1.40188,15.10561 c 0,0 1.314837,11.15599 2.06948,14.17456 1.77404,3.25114 3.673472,5.4483 11.065382,5.28251 l 8.801449,-0.26244 c 0,0 5.646863,-0.43113 7.577683,-4.70188 1.692891,-2.9859 2.526361,-12.49582 2.526361,-12.49582 l 1.72415,-17.85718 z"
       id="path10935"
       inkscape:connector-curvature="0"
       sodipodi:nodetypes="ccccccccc" />
    <ellipse
       style="fill:#fcf2f1;fill-opacity:1;stroke:none;stroke-width:1.11684382;stroke-linecap:butt;stroke-miterlimit:4;stroke-dasharray:none;stroke-opacity:1"
       id="path10933"
       cx="85.95388"
       cy="95.081581"
       rx="23.016623"
       ry="12.050141" />
    <ellipse
       style="fill:#e6c9c8;fill-opacity:1;stroke:none;stroke-width:0.98485047;stroke-linecap:butt;stroke-miterlimit:4;stroke-dasharray:none;stroke-opacity:1"
       id="path10976"
       cx="86.291481"
       cy="93.738602"
       rx="17.766691"
       ry="6.9317012" />
    <path
       style="fill:#fadbe0;fill-opacity:1;stroke:none;stroke-width:1;stroke-linecap:butt;stroke-miterlimit:4;stroke-dasharray:none;stroke-opacity:1"
       d="m 89.923858,86.94935 v 13.57074 a 17.766691,6.9317012 0 0 0 8.584489,-1.735287 V 88.697048 A 17.766691,6.9317012 0 0 0 89.923858,86.94935 Z"
       id="rect10990"
       inkscape:connector-curvature="0" />
    <path
       style="display:inline;fill:#cbb1b2;fill-opacity:1;stroke:none;stroke-width:1.04185688px;stroke-linecap:butt;stroke-linejoin:miter;stroke-opacity:1"
       d="m 391.89113,386.93482 c -33.46224,22.76042 -89.37658,26.18054 -132.12355,2.43432 l 1.30664,15.3125 c 0.32782,0.18958 0.61982,0.3657 1.00586,0.57813 58.07678,31.95794 116.80876,5.16078 128.53906,-0.83594 z"
       transform="scale(0.26458333)"
       id="path10978-1"
       inkscape:connector-curvature="0"
       sodipodi:nodetypes="cccccc" />
    <path
       style="fill:#fadbe0;fill-opacity:1;stroke:none;stroke-width:0.26458332px;stroke-linecap:butt;stroke-linejoin:miter;stroke-opacity:1"
       d="M 108.63419,95.636302 C 98.219135,106.13778 75.604617,108.0346 62.955813,94.89726 c 0.01251,0.962274 0.09502,1.944747 0.58957,2.913177 0.438112,0.857915 0.574249,1.167724 1.186862,1.971444 l 2.349074,2.177129 c 1.03673,0.55113 1.236783,0.91563 2.670703,1.64255 17.16979,8.70413 33.943278,-0.78046 33.943278,-0.78046 0,0 2.30443,-1.70095 3.73525,-3.251003 0.13526,-0.265228 0.83371,-1.113655 1.17938,-2.181754 0.51334,-1.586163 0.36314,-1.740638 0.0243,-1.752041 z"
       id="path10978"
       inkscape:connector-curvature="0"
       sodipodi:nodetypes="ccscccccsc" />
  </g>
</svg>
