<?xml version="1.0" encoding="UTF-8" standalone="no"?>
<!-- Created with Inkscape (http://www.inkscape.org/) -->

<svg
   xmlns:dc="http://purl.org/dc/elements/1.1/"
   xmlns:cc="http://creativecommons.org/ns#"
   xmlns:rdf="http://www.w3.org/1999/02/22-rdf-syntax-ns#"
   xmlns:svg="http://www.w3.org/2000/svg"
   xmlns="http://www.w3.org/2000/svg"
   xmlns:sodipodi="http://sodipodi.sourceforge.net/DTD/sodipodi-0.dtd"
   xmlns:inkscape="http://www.inkscape.org/namespaces/inkscape"
   width="25.582315mm"
   height="35.668346mm"
   viewBox="0 0 25.582315 35.668346"
   version="1.1"
   id="svg5080"
   inkscape:version="0.92.4 5da689c313, 2019-01-14"
   sodipodi:docname="cup_large_dirty.svg">
  <defs
     id="defs5074" />
  <sodipodi:namedview
     id="base"
     pagecolor="#ffffff"
     bordercolor="#666666"
     borderopacity="1.0"
     inkscape:pageopacity="0.0"
     inkscape:pageshadow="2"
     inkscape:zoom="3.6449271"
     inkscape:cx="53.734373"
     inkscape:cy="89.890907"
     inkscape:document-units="mm"
     inkscape:current-layer="layer2"
     showgrid="false"
     inkscape:snap-global="false"
     showguides="true"
     inkscape:guide-bbox="true"
     inkscape:window-width="1920"
     inkscape:window-height="1015"
     inkscape:window-x="0"
     inkscape:window-y="0"
     inkscape:window-maximized="1" />
  <metadata
     id="metadata5077">
    <rdf:RDF>
      <cc:Work
         rdf:about="">
        <dc:format>image/svg+xml</dc:format>
        <dc:type
           rdf:resource="http://purl.org/dc/dcmitype/StillImage" />
        <dc:title></dc:title>
      </cc:Work>
    </rdf:RDF>
  </metadata>
  <g
     inkscape:groupmode="layer"
     id="layer2"
     inkscape:label="Ebene 2"
     style="display:inline" />
  <g
     inkscape:label="Ebene 1"
     inkscape:groupmode="layer"
     id="layer1"
     transform="translate(-69.641541,-125.48502)"
     style="display:inline">
    <path
       style="fill:#fedfdf;fill-opacity:1;stroke:#205f60;stroke-width:1;stroke-linecap:butt;stroke-linejoin:miter;stroke-miterlimit:4;stroke-dasharray:none;stroke-opacity:1"
       d="m 70.141541,128.7477 v -2.07584 c 0.05678,-0.59614 0.577131,-0.68638 0.577131,-0.68638 l 23.240401,0.24936 c 0,0 0.764783,-0.0868 0.764783,0.76479 v 1.83323 l -2.075841,0.0241 -2.622114,31.68387 -15.404917,0.10926 -2.646205,-31.8938 z"
       id="path6311"
       inkscape:connector-curvature="0"
       sodipodi:nodetypes="ccccccccccc" />
    <path
       style="fill:#efebf5;fill-opacity:1;stroke:none;stroke-width:0.26202229px;stroke-linecap:butt;stroke-linejoin:miter;stroke-opacity:1"
       d="m 70.315514,127.30226 c 0.05267,-0.80499 0.400147,-0.99686 0.400147,-0.99686 l 23.347272,0.0846 c 0,0 0.473686,0.322 0.42105,1.01965 z"
       id="path6333"
       inkscape:connector-curvature="0"
       sodipodi:nodetypes="ccccc" />
    <rect
       style="fill:#fedfdf;fill-opacity:1;stroke:none;stroke-width:1.01129973;stroke-linecap:butt;stroke-miterlimit:4;stroke-dasharray:none;stroke-opacity:1"
       id="rect6339"
       width="0.43406317"
       height="0.96063155"
       x="70.31823"
       y="127.28841"
       rx="2.7755586e-17" />
    <rect
       style="fill:#fedfdf;fill-opacity:1;stroke:none;stroke-width:0.99551898;stroke-linecap:butt;stroke-miterlimit:4;stroke-dasharray:none;stroke-opacity:1"
       id="rect6339-2"
       width="0.42694739"
       height="0.94639999"
       x="94.060059"
       y="127.3916"
       rx="2.7300577e-17" />
    <path
       style="fill:#8b544d;fill-opacity:1;stroke:none;stroke-width:0.16883487px;stroke-linecap:butt;stroke-linejoin:miter;stroke-opacity:1"
       d="m 70.646949,126.14515 -0.413423,0.75224 -0.06166,1.51407 1.934053,0.19515 0.556721,4.60648 c 0.19403,0.75714 0.419608,1.71663 0.63872,2.9099 0.55122,3.00192 1.503252,-0.36852 1.453142,-1.68516 0.200443,-1.36928 -0.250325,-5.58257 0.75189,-2.47531 1.002218,3.10724 2.104266,0.47388 2.104266,0.47388 l 0.401008,-1.15859 c 0,0 0.05001,1.10617 1.352889,6.89932 1.302885,5.79318 6.664695,3.79162 6.614583,0.89504 0.150328,-1.31663 -0.11521,-1.82232 -0.07648,-3.05046 0.04669,-1.47961 0.661414,-0.54744 0.793234,0.005 0.06504,0.27266 0.119248,0.58679 0.185518,0.93999 1.403104,7.47845 4.058667,0.42116 4.058667,0.42116 l 0.666109,-0.6997 0.832846,-7.962 2.067564,-0.21822 0.253535,-0.99511 c 0,-0.8259 -0.37554,-1.15219 -0.37554,-1.15219 z"
       id="path48"
       inkscape:connector-curvature="0"
       sodipodi:nodetypes="cccccsccccsccccccccccc" />
    <rect
       style="fill:#6c433b;fill-opacity:1;stroke:none;stroke-width:0.49040267;stroke-miterlimit:4;stroke-dasharray:none;stroke-opacity:1"
       id="rect966"
       width="20.179873"
       height="1.4517891"
       x="72.472534"
       y="128.92365" />
    <path
       style="display:inline;fill:none;fill-opacity:1;stroke:#205f60;stroke-width:1;stroke-linecap:butt;stroke-linejoin:miter;stroke-miterlimit:4;stroke-dasharray:none;stroke-opacity:1"
       d="m 70.12613,128.87004 v -2.07584 c 0.05678,-0.59614 0.577131,-0.68638 0.577131,-0.68638 l 23.240396,0.24936 c 0,0 0.76479,-0.0868 0.76479,0.76479 v 1.83323 l -2.07584,0.0241 -2.62212,31.68387 -15.404914,0.10926 -2.646205,-31.8938 z"
       id="path6311-7"
       inkscape:connector-curvature="0"
       sodipodi:nodetypes="ccccccccccc" />
  </g>
</svg>
