<?xml version="1.0" encoding="UTF-8" standalone="no"?>
<!-- Created with Inkscape (http://www.inkscape.org/) -->

<svg
   xmlns:dc="http://purl.org/dc/elements/1.1/"
   xmlns:cc="http://creativecommons.org/ns#"
   xmlns:rdf="http://www.w3.org/1999/02/22-rdf-syntax-ns#"
   xmlns:svg="http://www.w3.org/2000/svg"
   xmlns="http://www.w3.org/2000/svg"
   xmlns:sodipodi="http://sodipodi.sourceforge.net/DTD/sodipodi-0.dtd"
   xmlns:inkscape="http://www.inkscape.org/namespaces/inkscape"
   width="27.684168mm"
   height="31.89216mm"
   viewBox="0 0 27.684168 31.89216"
   version="1.1"
   id="svg1125"
   inkscape:version="0.92.4 (5da689c313, 2019-01-14)"
   sodipodi:docname="task_coffee_1.svg">
  <defs
     id="defs1119" />
  <sodipodi:namedview
     id="base"
     pagecolor="#ffffff"
     bordercolor="#666666"
     borderopacity="1.0"
     inkscape:pageopacity="0.0"
     inkscape:pageshadow="2"
     inkscape:zoom="2.6495716"
     inkscape:cx="-1.1660187"
     inkscape:cy="57.503369"
     inkscape:document-units="mm"
     showgrid="false"
     showguides="true"
     inkscape:guide-bbox="true"
     inkscape:window-width="1920"
     inkscape:window-height="1017"
     inkscape:window-x="-8"
     inkscape:window-y="-8"
     inkscape:window-maximized="1"
     inkscape:snap-global="false"
     inkscape:current-layer="layer13" />
  <metadata
     id="metadata1122">
    <rdf:RDF>
      <cc:Work
         rdf:about="">
        <dc:format>image/svg+xml</dc:format>
        <dc:type
           rdf:resource="http://purl.org/dc/dcmitype/StillImage" />
        <dc:title></dc:title>
      </cc:Work>
    </rdf:RDF>
  </metadata>
  <g
     inkscape:label="Ebene 1"
     inkscape:groupmode="layer"
     id="layer1"
     style="display:inline"
     transform="translate(-225.45985,-30.567566)">
    <rect
       style="fill:#d8b8b9;fill-opacity:1;stroke:none;stroke-width:1;stroke-linecap:round;stroke-miterlimit:4;stroke-dasharray:none;stroke-opacity:1"
       id="rect1681"
       width="27.684168"
       height="31.89216"
       x="225.45985"
       y="30.567566"
       rx="2.7755586e-17" />
    <rect
       style="fill:none;fill-opacity:1;stroke:#cfa9a8;stroke-width:1;stroke-linecap:round;stroke-miterlimit:4;stroke-dasharray:none;stroke-opacity:1"
       id="rect1738"
       width="11.88321"
       height="4.5935102"
       x="239.66138"
       y="55.241573"
       rx="2.7755586e-17" />
  </g>
  <g
     inkscape:groupmode="layer"
     id="layer12"
     inkscape:label="Ebene 2"
     style="display:inline"
     transform="translate(-225.45985,-30.567566)">
    <rect
       style="fill:#d5b1b1;fill-opacity:1;stroke:none;stroke-width:0.9908002;stroke-linecap:round;stroke-miterlimit:4;stroke-dasharray:none;stroke-opacity:1"
       id="rect1683"
       width="26.762188"
       height="0.9985891"
       x="225.73108"
       y="33.372478"
       rx="2.7247243e-17" />
    <rect
       style="fill:#d5b1b1;fill-opacity:1;stroke:none;stroke-width:0.9908002;stroke-linecap:round;stroke-miterlimit:4;stroke-dasharray:none;stroke-opacity:1"
       id="rect1683-7"
       width="26.762188"
       height="0.9985891"
       x="225.73108"
       y="37.965984"
       rx="2.7247243e-17" />
    <rect
       style="fill:#d5b1b1;fill-opacity:1;stroke:none;stroke-width:0.9908002;stroke-linecap:round;stroke-miterlimit:4;stroke-dasharray:none;stroke-opacity:1"
       id="rect1683-6"
       width="26.762188"
       height="0.9985891"
       x="225.73108"
       y="42.259907"
       rx="2.7247243e-17" />
    <rect
       style="fill:#d5b1b1;fill-opacity:1;stroke:none;stroke-width:0.9908002;stroke-linecap:round;stroke-miterlimit:4;stroke-dasharray:none;stroke-opacity:1"
       id="rect1683-6-4"
       width="26.762188"
       height="0.9985891"
       x="225.83093"
       y="46.553848"
       rx="2.7247243e-17" />
  </g>
  <g
     inkscape:groupmode="layer"
     id="layer13"
     inkscape:label="Kaffee"
     style="display:inline"
     transform="translate(-225.45985,-30.567566)">
    <path
       style="display:inline;opacity:1;fill:#691f1a;fill-opacity:1;stroke:none;stroke-width:0.49977684;stroke-linecap:round;stroke-miterlimit:4;stroke-dasharray:none;stroke-opacity:1"
       d="m 232.85639,39.844813 a 5.3377018,5.2310374 0 0 0 -5.33766,5.23099 5.3377018,5.2310374 0 0 0 5.05869,5.21734 v 0.0121 h 0.24814 a 5.3377018,5.2310374 0 0 0 0.0309,0.002 5.3377018,5.2310374 0 0 0 0.0436,-0.002 h 3.98097 a 5.3377018,5.2310374 0 0 0 0.39986,0.0198 5.3377018,5.2310374 0 0 0 0.43314,-0.0198 h 0.14046 v -0.0166 a 5.3377018,5.2310374 0 0 0 4.76405,-5.19507 5.3377018,5.2310374 0 0 0 -4.76405,-5.19862 v -0.0233 h -0.38909 a 5.3377018,5.2310374 0 0 0 -0.18451,-0.009 5.3377018,5.2310374 0 0 0 -0.26135,0.009 h -3.62321 a 5.3377018,5.2310374 0 0 0 -0.53984,-0.0268 z"
       id="rect900-3"
       inkscape:connector-curvature="0" />
    <path
       style="display:inline;opacity:1;fill:#872f2a;fill-opacity:1;stroke:none;stroke-width:0.5189566;stroke-linecap:round;stroke-miterlimit:4;stroke-dasharray:none;stroke-opacity:1"
       d="m 232.61064,38.645202 a 5.6358785,5.3418327 0 0 0 -5.63583,5.341791 5.6358785,5.3418327 0 0 0 5.34128,5.32784 v 0.0124 h 0.262 a 5.6358785,5.3418327 0 0 0 0.0326,0.002 5.6358785,5.3418327 0 0 0 0.046,-0.002 h 4.20336 a 5.6358785,5.3418327 0 0 0 0.42219,0.0202 5.6358785,5.3418327 0 0 0 0.45734,-0.0202 h 0.14831 v -0.017 a 5.6358785,5.3418327 0 0 0 5.03018,-5.305102 5.6358785,5.3418327 0 0 0 -5.03018,-5.308721 v -0.0238 h -0.41083 a 5.6358785,5.3418327 0 0 0 -0.19482,-0.009 5.6358785,5.3418327 0 0 0 -0.27595,0.009 h -3.82561 a 5.6358785,5.3418327 0 0 0 -0.56999,-0.0274 z"
       id="rect900"
       inkscape:connector-curvature="0" />
    <path
       style="display:inline;opacity:1;fill:none;stroke:#541109;stroke-width:2;stroke-linecap:round;stroke-linejoin:miter;stroke-miterlimit:4;stroke-dasharray:none;stroke-opacity:1"
       d="m 229.51907,43.867133 10.32188,-0.0222"
       id="path939"
       inkscape:connector-curvature="0" />
    <path
       style="display:inline;opacity:1;fill:none;stroke:#541109;stroke-width:0.99183863;stroke-linecap:round;stroke-linejoin:miter;stroke-miterlimit:4;stroke-dasharray:none;stroke-opacity:1"
       d="m 232.19973,47.213313 -0.0339,-6.64797"
       id="path939-2"
       inkscape:connector-curvature="0" />
    <path
       style="display:inline;opacity:1;fill:none;stroke:#541109;stroke-width:0.99183863;stroke-linecap:round;stroke-linejoin:miter;stroke-miterlimit:4;stroke-dasharray:none;stroke-opacity:1"
       d="m 234.84124,47.213313 -0.0339,-6.64797"
       id="path939-2-3"
       inkscape:connector-curvature="0" />
    <path
       style="display:inline;opacity:1;fill:none;stroke:#541109;stroke-width:0.99183863;stroke-linecap:round;stroke-linejoin:miter;stroke-miterlimit:4;stroke-dasharray:none;stroke-opacity:1"
       d="m 237.34956,47.191123 -0.0339,-6.64797"
       id="path939-2-3-4"
       inkscape:connector-curvature="0" />
  </g>
  <rect
     style="fill:#cca7a7;fill-opacity:1;stroke:none;stroke-width:1.19185269;stroke-linecap:round;stroke-miterlimit:4;stroke-dasharray:none;stroke-opacity:1"
     id="rect1683-6-4-5"
     width="27.660917"
     height="1.3980248"
     x="0.021560669"
     y="20.679649"
     rx="2.8162264e-17" />
</svg>
