<?xml version="1.0" encoding="UTF-8" standalone="no"?>
<!-- Created with Inkscape (http://www.inkscape.org/) -->

<svg
   xmlns:osb="http://www.openswatchbook.org/uri/2009/osb"
   xmlns:dc="http://purl.org/dc/elements/1.1/"
   xmlns:cc="http://creativecommons.org/ns#"
   xmlns:rdf="http://www.w3.org/1999/02/22-rdf-syntax-ns#"
   xmlns:svg="http://www.w3.org/2000/svg"
   xmlns="http://www.w3.org/2000/svg"
   xmlns:sodipodi="http://sodipodi.sourceforge.net/DTD/sodipodi-0.dtd"
   xmlns:inkscape="http://www.inkscape.org/namespaces/inkscape"
   width="102.96972"
   height="100.98317"
   viewBox="0 0 27.244071 26.718464"
   version="1.1"
   id="svg8"
   inkscape:version="0.92.4 (5da689c313, 2019-01-14)"
   sodipodi:docname="button_inactive.svg">
  <defs
     id="defs2">
    <linearGradient
       id="linearGradient4567"
       osb:paint="solid">
      <stop
         style="stop-color:#000000;stop-opacity:1;"
         offset="0"
         id="stop4565" />
    </linearGradient>
  </defs>
  <sodipodi:namedview
     id="base"
     pagecolor="#ffffff"
     bordercolor="#666666"
     borderopacity="1.0"
     inkscape:pageopacity="0.0"
     inkscape:pageshadow="2"
     inkscape:zoom="4.2167055"
     inkscape:cx="53.317425"
     inkscape:cy="44.919451"
     inkscape:document-units="mm"
     inkscape:current-layer="layer2"
     showgrid="false"
     units="px"
     width="1920px"
     inkscape:lockguides="true"
     inkscape:snap-grids="false"
     inkscape:snap-to-guides="false"
     inkscape:window-width="1920"
     inkscape:window-height="1017"
     inkscape:window-x="-8"
     inkscape:window-y="-8"
     inkscape:window-maximized="1"
     fit-margin-top="0"
     fit-margin-left="0"
     fit-margin-right="0"
     fit-margin-bottom="0" />
  <metadata
     id="metadata5">
    <rdf:RDF>
      <cc:Work
         rdf:about="">
        <dc:format>image/svg+xml</dc:format>
        <dc:type
           rdf:resource="http://purl.org/dc/dcmitype/StillImage" />
        <dc:title></dc:title>
      </cc:Work>
    </rdf:RDF>
  </metadata>
  <g
     inkscape:groupmode="layer"
     id="layer2"
     inkscape:label="Unten"
     style="display:inline"
     transform="translate(-166.41344,-97.673285)">
    <ellipse
       id="path3725-4"
       cx="180.03548"
       cy="111.03252"
       rx="13.622036"
       ry="13.359232"
       style="display:inline;fill:#285559;fill-opacity:1;stroke-width:0.26458332" />
  </g>
  <g
     inkscape:groupmode="layer"
     id="layer5"
     inkscape:label="Striche"
     style="display:inline"
     transform="translate(-166.41344,-97.673285)">
    <path
       style="display:inline;fill:#40656b;fill-opacity:1;stroke-width:0.26458332"
       d="m 173.90753,99.161953 a 13.622036,13.359232 0 0 0 -2.15749,1.298107 l 18.8836,18.8836 a 13.622036,13.359232 0 0 0 1.36425,-2.09134 z m -2.7125,1.724437 a 13.622036,13.359232 0 0 0 -1.75286,1.70222 l 18.97765,18.97766 a 13.622036,13.359232 0 0 0 1.77302,-1.68207 z m -2.15594,2.22209 a 13.622036,13.359232 0 0 0 -1.33635,2.11873 l 17.99528,17.99529 a 13.622036,13.359232 0 0 0 2.18488,-1.27021 z"
       id="path3725"
       inkscape:connector-curvature="0" />
  </g>
  <g
     inkscape:groupmode="layer"
     id="layer3"
     inkscape:label="Oben"
     style="display:inline"
     transform="translate(-166.41344,-97.673285)">
    <ellipse
       style="fill:#3e6669;fill-opacity:1;stroke-width:0.26458332"
       id="path4533"
       cx="180.06491"
       cy="111.16016"
       rx="11.957607"
       ry="11.651002" />
    <ellipse
       style="fill:#063438;fill-opacity:1;stroke-width:0.225823"
       id="path4533-1"
       cx="179.97733"
       cy="110.98497"
       rx="10.074175"
       ry="10.074174" />
  </g>
  <g
     inkscape:groupmode="layer"
     id="layer4"
     inkscape:label="Tropfen"
     style="display:inline"
     transform="translate(-166.41344,-97.673285)">
    <path
       style="display:inline;fill:#1d464a;fill-opacity:1;stroke-width:1"
       d="m 180.08484,104.10644 -0.25296,0.5687 c 0,0 -0.23088,0.56888 -0.37517,0.77089 -0.1443,0.20202 -0.40482,0.51011 -0.40482,0.51011 l -0.28538,0.34972 -0.35547,0.5999 -0.0579,0.66404 0.10025,0.7017 0.39016,0.53905 0.43304,0.40411 0.46199,0.25941 0.0873,0.004 -0.001,0.0248 0.25994,-0.0124 0.25941,0.0124 -0.001,-0.0248 0.0879,-0.004 0.462,-0.25941 0.43253,-0.40411 0.39067,-0.53905 0.10025,-0.7017 -0.0579,-0.66404 -0.27911,-0.53627 -0.36174,-0.41335 c 0,0 -0.32414,-0.28264 -0.46845,-0.48466 -0.14429,-0.20201 -0.29881,-0.74544 -0.29881,-0.74544 z"
       id="path4555"
       inkscape:connector-curvature="0"
       sodipodi:nodetypes="ccccccccccccccccccccccccccc" />
    <path
       style="display:inline;fill:#1d464a;fill-opacity:1;stroke-width:1"
       d="m 184.36612,108.12815 -0.25296,0.5687 c 0,0 -0.23088,0.56887 -0.37517,0.77088 -0.1443,0.20202 -0.40482,0.51011 -0.40482,0.51011 l -0.28538,0.34973 -0.35547,0.59989 -0.0579,0.66405 0.10025,0.7017 0.39016,0.53905 0.43305,0.40411 0.46198,0.25941 0.0873,0.004 -0.001,0.0248 0.25993,-0.0124 0.25941,0.0124 -10e-4,-0.0248 0.0879,-0.004 0.462,-0.25941 0.43253,-0.40411 0.39067,-0.53905 0.10025,-0.7017 -0.0579,-0.66405 -0.27911,-0.53627 -0.36174,-0.41335 c 0,0 -0.32414,-0.28264 -0.46845,-0.48466 -0.14429,-0.20201 -0.29881,-0.74543 -0.29881,-0.74543 z"
       id="path4555-9"
       inkscape:connector-curvature="0"
       sodipodi:nodetypes="ccccccccccccccccccccccccccc" />
    <path
       style="display:inline;fill:#1d464a;fill-opacity:1;stroke-width:1"
       d="m 180.09033,112.40394 -0.25296,0.5687 c 0,0 -0.23088,0.56887 -0.37517,0.77088 -0.1443,0.20202 -0.40482,0.51011 -0.40482,0.51011 l -0.28538,0.34973 -0.35547,0.59989 -0.0579,0.66405 0.10025,0.7017 0.39016,0.53905 0.43305,0.40411 0.46198,0.25941 0.0873,0.004 -0.001,0.0248 0.25993,-0.0124 0.25941,0.0124 -10e-4,-0.0248 0.0879,-0.004 0.462,-0.25941 0.43253,-0.40411 0.39067,-0.53905 0.10025,-0.7017 -0.0579,-0.66405 -0.27911,-0.53627 -0.36174,-0.41335 c 0,0 -0.32414,-0.28264 -0.46845,-0.48466 -0.14428,-0.20201 -0.2988,-0.74543 -0.2988,-0.74543 z"
       id="path4555-9-8"
       inkscape:connector-curvature="0"
       sodipodi:nodetypes="ccccccccccccccccccccccccccc" />
    <path
       style="display:inline;fill:#1d464a;fill-opacity:1;stroke-width:1"
       d="m 175.81459,108.53542 -0.25296,0.5687 c 0,0 -0.23088,0.56887 -0.37517,0.77088 -0.1443,0.20202 -0.40482,0.51011 -0.40482,0.51011 l -0.28538,0.34973 -0.35547,0.59989 -0.0579,0.66405 0.10025,0.7017 0.39016,0.53905 0.43305,0.40411 0.46198,0.25941 0.0873,0.004 -0.001,0.0248 0.25993,-0.0124 0.25941,0.0124 -0.001,-0.0248 0.0879,-0.004 0.462,-0.25941 0.43253,-0.40411 0.39067,-0.53905 0.10025,-0.7017 -0.0579,-0.66405 -0.27911,-0.53627 -0.36174,-0.41335 c 0,0 -0.32414,-0.28264 -0.46845,-0.48466 -0.14429,-0.20201 -0.29881,-0.74543 -0.29881,-0.74543 z"
       id="path4555-9-4"
       inkscape:connector-curvature="0"
       sodipodi:nodetypes="ccccccccccccccccccccccccccc" />
  </g>
</svg>
