<?xml version="1.0" encoding="UTF-8" standalone="no"?>
<!-- Created with Inkscape (http://www.inkscape.org/) -->

<svg
   xmlns:dc="http://purl.org/dc/elements/1.1/"
   xmlns:cc="http://creativecommons.org/ns#"
   xmlns:rdf="http://www.w3.org/1999/02/22-rdf-syntax-ns#"
   xmlns:svg="http://www.w3.org/2000/svg"
   xmlns="http://www.w3.org/2000/svg"
   xmlns:sodipodi="http://sodipodi.sourceforge.net/DTD/sodipodi-0.dtd"
   xmlns:inkscape="http://www.inkscape.org/namespaces/inkscape"
   width="27.684168mm"
   height="31.89216mm"
   viewBox="0 0 27.684168 31.89216"
   version="1.1"
   id="svg1125"
   inkscape:version="0.92.4 (5da689c313, 2019-01-14)"
   sodipodi:docname="task_chocolate_1.svg">
  <defs
     id="defs1119" />
  <sodipodi:namedview
     id="base"
     pagecolor="#ffffff"
     bordercolor="#666666"
     borderopacity="1.0"
     inkscape:pageopacity="0.0"
     inkscape:pageshadow="2"
     inkscape:zoom="2.6495716"
     inkscape:cx="-43.729891"
     inkscape:cy="77.129183"
     inkscape:document-units="mm"
     inkscape:current-layer="layer12"
     showgrid="false"
     showguides="true"
     inkscape:guide-bbox="true"
     inkscape:window-width="1920"
     inkscape:window-height="1017"
     inkscape:window-x="-8"
     inkscape:window-y="-8"
     inkscape:window-maximized="1" />
  <metadata
     id="metadata1122">
    <rdf:RDF>
      <cc:Work
         rdf:about="">
        <dc:format>image/svg+xml</dc:format>
        <dc:type
           rdf:resource="http://purl.org/dc/dcmitype/StillImage" />
        <dc:title></dc:title>
      </cc:Work>
    </rdf:RDF>
  </metadata>
  <g
     inkscape:label="Ebene 1"
     inkscape:groupmode="layer"
     id="layer1"
     style="display:inline"
     transform="translate(-225.45985,-30.567566)">
    <rect
       style="fill:#d8b8b9;fill-opacity:1;stroke:none;stroke-width:1;stroke-linecap:round;stroke-miterlimit:4;stroke-dasharray:none;stroke-opacity:1"
       id="rect1681"
       width="27.684168"
       height="31.89216"
       x="225.45985"
       y="30.567566"
       rx="2.7755586e-17" />
    <rect
       style="fill:none;fill-opacity:1;stroke:#cfa9a8;stroke-width:1;stroke-linecap:round;stroke-miterlimit:4;stroke-dasharray:none;stroke-opacity:1"
       id="rect1738"
       width="11.88321"
       height="4.5935102"
       x="239.66138"
       y="55.241573"
       rx="2.7755586e-17" />
  </g>
  <g
     inkscape:groupmode="layer"
     id="layer12"
     inkscape:label="Ebene 2"
     style="display:inline"
     transform="translate(-225.45985,-30.567566)">
    <rect
       style="fill:#d5b1b1;fill-opacity:1;stroke:none;stroke-width:0.9908002;stroke-linecap:round;stroke-miterlimit:4;stroke-dasharray:none;stroke-opacity:1"
       id="rect1683"
       width="26.762188"
       height="0.9985891"
       x="225.73108"
       y="33.372478"
       rx="2.7247243e-17" />
    <rect
       style="fill:#d5b1b1;fill-opacity:1;stroke:none;stroke-width:0.9908002;stroke-linecap:round;stroke-miterlimit:4;stroke-dasharray:none;stroke-opacity:1"
       id="rect1683-7"
       width="26.762188"
       height="0.9985891"
       x="225.73108"
       y="37.965984"
       rx="2.7247243e-17" />
    <rect
       style="fill:#d5b1b1;fill-opacity:1;stroke:none;stroke-width:0.9908002;stroke-linecap:round;stroke-miterlimit:4;stroke-dasharray:none;stroke-opacity:1"
       id="rect1683-6"
       width="26.762188"
       height="0.9985891"
       x="225.73108"
       y="42.259907"
       rx="2.7247243e-17" />
    <rect
       style="fill:#d5b1b1;fill-opacity:1;stroke:none;stroke-width:0.9908002;stroke-linecap:round;stroke-miterlimit:4;stroke-dasharray:none;stroke-opacity:1"
       id="rect1683-6-4"
       width="26.762188"
       height="0.9985891"
       x="225.83093"
       y="46.553848"
       rx="2.7247243e-17" />
  </g>
  <g
     inkscape:groupmode="layer"
     id="layer13"
     inkscape:label="Schokolade"
     style="display:inline"
     transform="translate(-225.45985,-30.567566)">
    <path
       style="display:inline;fill:#c56a67;fill-opacity:1;stroke:none;stroke-width:0.26458332px;stroke-linecap:butt;stroke-linejoin:miter;stroke-opacity:1"
       d="m 228.79061,43.646325 c 0,0 -0.27129,0.135644 -0.54258,0.678216 -0.27128,0.542576 -0.0904,0.859078 -0.13564,0.949507 -0.0452,0.09043 4.88743,3.214488 4.88743,3.214488 l 0.90003,-0.365969 -0.0904,-1.039936 z"
       id="path1113"
       inkscape:connector-curvature="0"
       sodipodi:nodetypes="ccccccc" />
    <path
       style="display:inline;fill:#812e2a;fill-opacity:1;stroke:none;stroke-width:0.26458332px;stroke-linecap:butt;stroke-linejoin:miter;stroke-opacity:1"
       d="m 232.99556,50.157221 -4.92838,-3.210234 0.0452,-1.718153 4.88317,3.074591 z"
       id="path1115"
       inkscape:connector-curvature="0" />
    <path
       style="display:inline;fill:#852e27;fill-opacity:1;stroke:none;stroke-width:0.26458332px;stroke-linecap:butt;stroke-linejoin:miter;stroke-opacity:1"
       d="m 228.7696,43.691537 8.36575,-5.854752 c 0,0 0.45215,-0.587789 1.35644,-0.452145 0.90429,0.135644 1.2934,0.519437 1.2934,0.519437 l 4.13235,2.828568 c 0,0 -0.76865,-0.180857 -1.58251,0.452146 -0.81387,0.633004 -3.34588,2.396372 -3.34588,2.396372 l -4.38581,3.119804 -0.72343,0.49736 z"
       id="path1109"
       inkscape:connector-curvature="0"
       sodipodi:nodetypes="ccsccccccc" />
    <path
       style="display:inline;fill:#9a3630;fill-opacity:1;stroke:none;stroke-width:0.26458332px;stroke-linecap:butt;stroke-linejoin:miter;stroke-opacity:1"
       d="m 232.85769,40.890215 c 0,0 1.53905,1.247884 1.99661,2.329384 0.41596,1.081497 1.16469,3.327691 -0.58234,3.868441 -1.74704,0.540751 4.03482,-2.37098 4.03482,-2.37098 l 1.20629,-1.247884 -1.45587,0.457555 c 0,0 -1.66384,-0.291174 -1.70544,-3.03652 -0.0416,-2.745344 0.0416,-2.537363 0.0416,-2.537363 z"
       id="path1117"
       inkscape:connector-curvature="0"
       sodipodi:nodetypes="ccscccccc" />
    <path
       style="display:inline;fill:#5c1812;fill-opacity:1;stroke:none;stroke-width:0.26458332px;stroke-linecap:butt;stroke-linejoin:miter;stroke-opacity:1"
       d="m 243.80184,40.571735 0.0904,2.07987 -10.94405,7.50668 0.002,-1.628787 c 0,0 0.22608,-0.859078 0.40693,-1.039935 0.18086,-0.180859 0.22607,-0.180859 0.81387,-0.58779 0.58778,-0.406933 7.14389,-5.154461 7.14389,-5.154461 0,0 0.79791,-0.645505 1.49208,-1.085148 0.67104,-0.208253 0.99472,-0.09043 0.99472,-0.09043 z"
       id="path1111"
       inkscape:connector-curvature="0"
       sodipodi:nodetypes="ccccccccc" />
  </g>
  <rect
     style="fill:#cca7a7;fill-opacity:1;stroke:none;stroke-width:1.19185269;stroke-linecap:round;stroke-miterlimit:4;stroke-dasharray:none;stroke-opacity:1"
     id="rect1683-6-4-5"
     width="27.660917"
     height="1.3980248"
     x="0.021560669"
     y="20.679649"
     rx="2.8162264e-17" />
</svg>
